/* XPM */
static char *dummy[]={
"32 32 648 2",
".k c #8b5f3f",
".j c #aa8466",
".l c #b4957e",
".i c #ba9984",
"hX c #bd9a85",
"h5 c #bd9c8a",
"h6 c #bf9c8b",
"h3 c #c19e8b",
"h4 c #c19e8c",
"hY c #c3a08b",
"h2 c #c3a18f",
"hZ c #c4a390",
"h0 c #c7a594",
"h1 c #c7a694",
"h7 c #c8a191",
".d c #c8ad94",
".h c #cbaa98",
"id c #cfc4ad",
".g c #d1b8a2",
"h9 c #d1c4aa",
".f c #d1c7b2",
"h8 c #d2b4a1",
"ie c #d2c6ae",
"if c #d2c6b2",
"ic c #d2c6b5",
".e c #d4c3b8",
"ib c #d5c7bc",
"i. c #d5c8b9",
".c c #d7bfb4",
"ia c #d7c8bd",
"i# c #d8c8bf",
".a c #fcfcfc",
"Qt c #fdfdfd",
".b c #fffffc",
".# c #ffffff",
"eq c #3b1103",
"eR c #3b170a",
"eQ c #431e0f",
"ep c #451f0a",
"ej c #452415",
"er c #4d210d",
"eS c #552813",
"eT c #582d16",
"eO c #5c3d2e",
"es c #5f3219",
"eU c #60351b",
"fH c #64412f",
"eV c #663c21",
"eW c #6a4126",
"dO c #714731",
"eX c #72482c",
"et c #734529",
"eo c #73482b",
"gX c #734b37",
"fh c #785541",
"dY c #794f30",
"ek c #795035",
"fd c #7c573e",
"eY c #7e5234",
"b9 c #7f5236",
"cA c #7f5434",
"ei c #7f543b",
"dZ c #83583b",
"en c #855a3d",
"eZ c #865c3b",
"eu c #875a3c",
"bc c #875c3e",
"gE c #876247",
"f1 c #895e48",
"fJ c #896147",
"eN c #896248",
"aE c #8a6345",
"de c #8b644f",
"dg c #8b664e",
"e0 c #8c6547",
"c3 c #8e6649",
"el c #8f6548",
"bD c #8f684e",
"bb c #916a4e",
".x c #936549",
"bE c #936a4e",
"gH c #936e57",
"aM c #94694e",
"fK c #947259",
"c2 c #966c51",
"df c #96735c",
"ev c #986e52",
"bF c #987052",
"dP c #987359",
"b8 c #997256",
"gZ c #997459",
".G c #9c7456",
"b6 c #9c7559",
"db c #9c755d",
"cz c #9c7757",
".1 c #9c775d",
"em c #9d7557",
"#a c #9d785c",
"b7 c #9e755c",
"dh c #9e785f",
"bC c #9e795e",
"cB c #9e7e63",
"fg c #a07960",
"dJ c #a07b65",
"fG c #a1785e",
".R c #a27e63",
"f4 c #a28568",
"#L c #a37b63",
"ew c #a37c63",
"dN c #a37c65",
"aL c #a37f62",
"a# c #a37f65",
"go c #a38066",
"b5 c #a57c60",
"dt c #a58065",
"eP c #a58069",
"#y c #a58169",
"h# c #a5846d",
"gC c #a5856b",
"dX c #a67e66",
"ba c #a68164",
"cw c #a78165",
"du c #a7856b",
"dd c #a97f69",
"ag c #a98063",
"#m c #a98068",
"f3 c #a9836a",
"gj c #aa8466",
".H c #aa8773",
".Q c #ab8366",
"cI c #ab846b",
"cx c #ab8669",
"eg c #ab8c79",
"gm c #ab8f77",
"gp c #ab907e",
"aD c #ad8363",
"cd c #ad8971",
"d0 c #ad8a74",
"dc c #ad8b73",
"cf c #ad8b75",
"aa c #ad8f75",
"fn c #ae8a72",
"fq c #ae8c74",
"c1 c #af8b70",
"fm c #af8b73",
"ce c #af8e75",
".y c #af937b",
"fo c #b18c74",
"fp c #b18e77",
"gl c #b1937b",
"fi c #b19680",
"dM c #b19980",
"#R c #b28c6b",
"af c #b28e72",
".0 c #b28f79",
"#Q c #b29078",
"#C c #b29079",
"bB c #b29177",
"gW c #b2917c",
"aK c #b29378",
"dQ c #b48e77",
"gV c #b48f77",
"fy c #b48f7b",
"fX c #b49077",
"b# c #b49178",
".w c #b49179",
"b4 c #b4937a",
"#D c #b49478",
"eD c #b4947f",
"gF c #b49680",
"cy c #b58e6e",
"di c #b58e78",
"dv c #b59480",
"gh c #b5957e",
"dW c #b6907a",
"cc c #b6937c",
"#q c #b69480",
"cZ c #b6957f",
"#P c #b69581",
"#d c #b69584",
"bK c #b6967e",
"ae c #b69680",
"bJ c #b8937b",
"e6 c #b8937c",
"cH c #b8947c",
"a9 c #b89584",
"b. c #b89884",
"bA c #b89885",
"da c #b8997c",
"eb c #b89980",
"ha c #b89c86",
"fD c #b89c87",
"gB c #b8a08a",
"cv c #b99580",
"by c #b99685",
"bL c #b99883",
"aJ c #b99989",
"a8 c #b99a8a",
"fl c #ba967f",
"bz c #ba9885",
"c0 c #ba9984",
"aI c #ba9987",
"#p c #ba9a8a",
"g0 c #baa18e",
"f2 c #baa28e",
"#n c #baa693",
"fe c #bc9883",
"cY c #bc9c87",
"gG c #bc9d86",
"hb c #bca190",
"ad c #bd9a8a",
"ds c #bd9c86",
"eK c #bd9d86",
"e5 c #bd9e8a",
"h. c #bda28c",
"#x c #bf9886",
".F c #bf9d8b",
"dV c #bfa08b",
"fa c #bfa18a",
"fB c #bfa38f",
"cL c #c09e89",
"#B c #c0a191",
"e7 c #c0a28c",
"ea c #c0a293",
"d1 c #c0a38c",
"fz c #c0a693",
"dL c #c0a790",
"a5 c #c19e87",
"aH c #c1a18f",
"## c #c1a28f",
"aT c #c1a290",
"a6 c #c1ad9a",
"cJ c #c39e8b",
"bi c #c3a18c",
"fc c #c3a28e",
"b3 c #c3a291",
"a. c #c3a58f",
"cg c #c3a590",
"#9 c #c3a690",
"bN c #c3a693",
"eE c #c3a694",
"bh c #c3a994",
"fE c #c3ab95",
".v c #c4a391",
"dS c #c4a58e",
"bm c #c4a591",
"eF c #c4a794",
"ci c #c4ab95",
"fk c #c6a28c",
".P c #c6a393",
"fV c #c6a590",
"f# c #c6a591",
"ac c #c6a594",
"#O c #c6a596",
"fj c #c6a991",
"cj c #c6a996",
"eh c #c6aa8f",
"bg c #c6ae99",
"fT c #c7a593",
"gY c #c7a791",
"fI c #c7a793",
"ff c #c7a993",
"dH c #c7a994",
"cK c #c7aa95",
"dT c #c7aa96",
"dK c #c7ab96",
"e. c #c7ab98",
"aS c #c7ad9a",
"d2 c #c7ae96",
"c4 c #c7af9e",
"e9 c #c7afa0",
".q c #c8a998",
"bx c #c8a999",
"bj c #c8ad99",
"cX c #c8ad9a",
"cm c #c8ad9c",
"aU c #c8ae99",
"e# c #c8b19c",
"d# c #c8b49e",
"dR c #caa690",
".6 c #caa799",
"bM c #caaa96",
".K c #caaa98",
"aQ c #caab96",
"gi c #caad99",
"av c #caae9d",
"gD c #caaf9a",
"fW c #caaf9d",
"dU c #cab29e",
"f. c #cab4a1",
"fS c #cba798",
"fR c #cba999",
"b2 c #cbaa99",
".A c #cbad99",
".W c #cbaf99",
"cQ c #cbb19d",
"aR c #cbb29d",
"cG c #cbb49e",
"#8 c #cbb4a0",
"gg c #cbb6a1",
"cl c #cbb6a3",
"fF c #cbb9a6",
".E c #cda796",
"fQ c #cda99a",
".Z c #cdab9a",
"#l c #cdab9c",
"b1 c #cdad9c",
"cb c #cdae9c",
"ef c #cdaf98",
"aP c #cdb19c",
"ch c #cdb29c",
"ec c #cdb4a1",
"#s c #cdb59e",
"cM c #cdb5a0",
"aw c #cdb5a2",
"dI c #cdb6a2",
"ax c #cdb8a0",
"bn c #cdb8a5",
"cF c #cdb9a2",
"cs c #cdb9a9",
"fA c #cdbaa9",
"bX c #cdbfa7",
"be c #cdc0a6",
"dr c #ceab9c",
"hS c #ceae9e",
"aC c #ceb19e",
"aW c #ceb2a0",
"bo c #ceb5a0",
"ay c #ceb5a1",
"eH c #ceb5a5",
"bl c #ceb6a3",
"bO c #ceb8a2",
"bt c #ceb8a5",
"eI c #ceb8a6",
"#G c #ceb9a2",
"b0 c #ceb9a5",
"bp c #ceb9a6",
"bR c #cebaa5",
"bf c #cebca5",
"#H c #cec1a5",
"#7 c #cec1ad",
"cE c #cec3a9",
"#u c #cec6af",
"#h c #cfaa98",
"bI c #cfaf9d",
".O c #cfb19d",
"dw c #cfb1a2",
".u c #cfb29e",
"cP c #cfb2a1",
"f9 c #cfb4a0",
"bS c #cfb4a1",
"dj c #cfb5a1",
"hQ c #cfb6a1",
"cu c #cfb6a2",
"bu c #cfb8a2",
"a2 c #cfb8a3",
"cr c #cfb9a3",
"hL c #cfb9a5",
"#k c #cfbaa6",
"hU c #cfbca2",
"a1 c #cfbca5",
"#t c #cfbca7",
"ca c #cfbda6",
"#I c #cfbda7",
"gk c #cfbda9",
"aZ c #cfbfab",
"gO c #cfc0a7",
"c# c #cfc0a9",
"gN c #cfc0aa",
"gw c #cfc0ab",
"ex c #cfc1a7",
"gx c #cfc3ad",
"hV c #cfc4a9",
"bV c #cfc6ab",
"gu c #cfc6b2",
"dq c #d1ae9d",
"#. c #d1b19e",
"#w c #d1b1a0",
"bv c #d1b49e",
"bd c #d1b4a1",
"bw c #d1b5a0",
"hR c #d1b5a1",
"g. c #d1b5a2",
"bY c #d1b69e",
".Y c #d1b6a2",
"f0 c #d1b9a3",
"hP c #d1b9a5",
"aV c #d1b9a6",
"ed c #d1b9a9",
"bZ c #d1baa5",
"hO c #d1baa6",
"eJ c #d1baab",
"d3 c #d1bca7",
".7 c #d1bca9",
"bs c #d1bcaa",
"eL c #d1bcad",
"bH c #d1bda6",
"hM c #d1bda7",
"hN c #d1bda9",
".D c #d1bdaa",
"ck c #d1bdad",
"bG c #d1bfa5",
"#K c #d1bfa9",
".r c #d1bfab",
"fb c #d1bfad",
"a0 c #d1c0ab",
"#v c #d1c0ad",
"bk c #d1c0af",
"ah c #d1c1ad",
"#i c #d1c1ae",
"g3 c #d1c3ab",
"gv c #d1c3ad",
"bU c #d1c3af",
".9 c #d1c3b1",
"eG c #d1c3b2",
"c. c #d1c4ab",
"bW c #d1c4ae",
"cD c #d1c4af",
"d5 c #d1c4b1",
"gM c #d1c6ae",
"hW c #d1c6af",
"hK c #d1c6b1",
"bQ c #d1c6b5",
"fP c #d2af9e",
"g# c #d2b4a0",
"ga c #d2b4a1",
"hT c #d2b4a2",
"a4 c #d2b5a3",
"a3 c #d2b8a3",
"aX c #d2b9a6",
"f8 c #d2baa6",
"#6 c #d2baa7",
"aN c #d2baaa",
"fx c #d2bca6",
"fO c #d2bca7",
"dp c #d2bca9",
"az c #d2bcaa",
".L c #d2bdaa",
"cW c #d2bfad",
"aY c #d2bfaf",
"ao c #d2c0ad",
".N c #d2c0af",
"#5 c #d2c1ae",
"ct c #d2c1af",
"ap c #d2c1b1",
"br c #d2c1b2",
"aA c #d2c3b1",
"g9 c #d2c3b2",
"#J c #d2c4ae",
"ai c #d2c4af",
".t c #d2c4b1",
"g4 c #d2c4b4",
"e2 c #d2c4b8",
"hE c #d2c6af",
"ey c #d2c6b1",
"c9 c #d2c6b4",
"c8 c #d2c6b5",
"gL c #d2c6b6",
"fU c #d2c6b8",
"#M c #d2c6b9",
"d. c #d2c7b6",
"hF c #d2c7b8",
"hG c #d2c8b6",
".8 c #d2cabc",
"gf c #d2cabf",
"cN c #d4bda6",
"bT c #d4c0b1",
"co c #d4c1b1",
"aO c #d4c1b2",
"aB c #d4c3af",
"gP c #d4c3b1",
"gU c #d4c3b5",
"cC c #d4c4b5",
"bP c #d4c4b8",
"dG c #d4c6b1",
"hs c #d4c6b5",
"#j c #d4c6b6",
"d6 c #d4c6b8",
"c7 c #d4c6b9",
"e1 c #d4c7b1",
"he c #d4c7b2",
"gQ c #d4c7b5",
"hJ c #d4c7b6",
".X c #d4c7b8",
"dA c #d4c7b9",
".M c #d4c7ba",
"gR c #d4c8b8",
"dz c #d4c8b9",
".C c #d4cac0",
"cO c #d5baaa",
"au c #d5bdaa",
".3 c #d5c1b8",
"al c #d5c3b1",
"cp c #d5c4b4",
"do c #d5c6b6",
"ht c #d5c6bd",
".B c #d5c7b8",
"f7 c #d5c7b9",
"dB c #d5c7ba",
"c6 c #d5c7bc",
"fu c #d5c7bd",
"cq c #d5c8b8",
"hr c #d5c8b9",
"g5 c #d5c8ba",
"dC c #d5c8bc",
"fZ c #d5c8bd",
"#b c #d5cabd",
"gs c #d5cabf",
"dF c #d5cac0",
".s c #d5cac1",
"ak c #d7c3b1",
"aj c #d7c4b2",
"am c #d7c6b2",
"cV c #d7c7b9",
"ft c #d7c7bf",
"cU c #d7c8ba",
"gt c #d7c8bc",
"dD c #d7c8bd",
"dE c #d7c8bf",
"g2 c #d7c8c0",
"fN c #d7caba",
"fw c #d7cabc",
"hI c #d7cabd",
"#g c #d8bcae",
".V c #d8c3b8",
"d4 c #d8c4b5",
"an c #d8c6b5",
".z c #d8c6b9",
"ar c #d8c7b6",
"gA c #d8c8b9",
"hi c #d8c8ba",
"cR c #d8c8bf",
"hD c #d8cabd",
"ez c #d8cabf",
"hd c #d8cac0",
"ge c #d8cac1",
"fr c #d8cbbf",
"eM c #dac7b5",
"aq c #dac8ba",
"bq c #dac8bd",
"dn c #dacabd",
"fv c #dacabf",
"fs c #dacac0",
"dm c #dacbbd",
"d7 c #dacbbf",
"gd c #dacbc0",
"cT c #dacbc1",
"fC c #dacdbd",
"hq c #dacdbf",
"hH c #dacdc1",
"e4 c #dacdc3",
"eC c #dacec4",
"gz c #dacec6",
"as c #dbc8bc",
"cn c #dbcaba",
"gr c #dbcbbd",
"hj c #dbcbbf",
"eA c #dbcdc0",
"d9 c #dbcdc1",
"hg c #dbcdc3",
"dl c #dbcec0",
"hf c #dbcec3",
"e8 c #dbcfc1",
"dx c #dcc7ba",
"hl c #dcc7bc",
"dk c #dccbbf",
"d8 c #dccdc0",
"e3 c #dccdc1",
"hu c #dccdc3",
"gb c #dccec3",
"hp c #dccec4",
"eB c #dccfc3",
"gy c #dccfc6",
"ee c #dcd1c0",
"f5 c #dcd1c7",
"cS c #dcd1c8",
"g8 c #dcd2ca",
"at c #decaba",
"gq c #decdc0",
"hC c #decec3",
"hv c #decec6",
"fY c #decfc3",
"gc c #decfc4",
"gT c #ded1c4",
"hh c #ded1c6",
"fL c #ded1c7",
"#4 c #ded2c6",
"f6 c #dfcfc6",
"gn c #dfd1c0",
"dy c #dfd1c6",
"g7 c #dfd1c8",
"gK c #dfd2c7",
"g6 c #e1d1c6",
"gS c #e1d2c7",
"#c c #e1d2cb",
"fM c #e1d4ca",
"gJ c #e2d2c8",
"#r c #e2d4c6",
"gI c #e2d4c8",
"hw c #e2d4cb",
"hB c #e4d4ca",
"hk c #e4d8cd",
"hm c #e5d5c8",
"hx c #e5d7cd",
"ho c #e5d8cd",
"hy c #e5dbcd",
"a7 c #e5dcd7",
"hc c #e7d8cd",
"hA c #e7d8d2",
"hz c #e7dbd4",
"hn c #e8dbce",
"ab c #e8dfd7",
"#V c #e8e2da",
"#o c #eae2db",
"#W c #eae4dc",
"#U c #eae5dc",
"aF c #eae5de",
"g1 c #ebdcd2",
".2 c #ebe2da",
"#3 c #ebe2de",
"aG c #ede2dc",
"#N c #ede2df",
"#F c #ede4dc",
"#X c #ede7e1",
"#A c #eee7e1",
".5 c #eeeae7",
"#T c #f0e8e4",
"c5 c #f3ebe5",
"#Y c #f3ede7",
".p c #f3eee7",
".J c #f3f0eb",
"#z c #f4f3f0",
"#S c #f6f1ed",
".S c #f6f3f0",
"#Z c #f7f4f0",
"#0 c #faf9f9",
"#2 c #fcfaf6",
".T c #fcfaf9",
".I c #fcfcf9",
".m c #fcfcfc",
"#1 c #fdfcfc",
".o c #fdfdfd",
".U c #fdfdff",
"#E c #fdfffd",
"#f c #fdffff",
"#e c #fffdfd",
".4 c #fffffd",
".n c #ffffff",
"Qt.#.#.#.#Qt.aQt.#.#.#.#.#.#QtQt.#.#QtQt.b.#.c.d.e.f.g.h.i.j.k.l",
".m.m.n.n.n.n.n.o.n.n.n.n.n.n.o.o.o.o.o.o.n.p.q.r.s.t.u.v.w.x.y.n",
".n.o.o.n.n.n.n.n.o.o.o.o.o.o.o.o.o.o.o.o.n.z.A.B.C.D.E.F.G.H.I.n",
".n.n.o.n.n.n.n.n.n.n.n.n.n.n.n.n.n.n.n.n.J.K.L.M.N.O.P.Q.R.S.n.T",
".o.n.n.n.n.n.n.n.n.n.n.n.n.n.o.o.o.o.U.n.V.W.X.X.Y.Z.0.1.2.n.n.3",
".o.o.o.o.o.o.n.n.n.n.n.n.n.n.n.n.n.4.n.5.6.7.8.9#.###a#b.n.n#c#d",
".o.n.o.o.o.o.n.n.n.n.n.n.n.n.o#e.4#f.o#g#h#i#j#k#l#m#n.n.n#o#p#q",
".o.o.o.o.o.o.n.n.n.n.n.n.n.n.n.n.n.n#r#s#t#u#v#w#x#y#z.n#A#B#C#D",
".n.n.n.n.n.n.n.n.n.n.n.n#f#f.n.4#E#F#G#H#I#J#K.v#L#M.n#N#O#P#Q#R",
"#S#T#U#V#V#W#X#Y#Z#0#1.n.4#2#3#4#5#6#7#K#8#9a.a#aa.nabacadaeafag",
"ahaiajakalamanaoapaqarasatauavawaxayazaAaBaCaDaEaFaGaHaIaJaKaLaM",
"aNazaoaO.raPaQaRaSaTaUaVaW.WaXaYaZa0a1a2a3a4a5a6a7a8a9b.b#babbbc",
"bdbebfbgbhbibjbkblbmbn#v.7bobpbqbrbsbtbu.YbvbwbxbybzbAbBbCbDbEbF",
"bGbHbIbJbKbLbM.7azbNbObPbQbRbSbTbUbVbWbXbYbZb0b1b2b3b4b5b6b7b8b9",
"c.c#cacbcccdcecfcgchcicjckclcmcncocpcqapcraBcsctcucvcwcxcyczcAcB",
"cCcDcE#KcFcGcHcIcJcucKcLcMcNcOcPcQcRcScTcUcVcWcXcYcZc0c1c2c3c4c5",
"c6c7c8c9d.#jd#dadbdcdddedfdgdhdidjdkdldmdndodpdqdrdsdtdudvdwdxdy",
"dzdAdBdCdDdEdFdGdHdIdJdKdLdMdNdOdPdQdRdSdTdUdVdWdXdYdZd0d1d2d3d4",
"d5d6dDd7d7d8d9e.e#eaebecedeeefegeheiejekelemeneoepeqereseteuevew",
"exeydBezeAeBeCeDeEeFeGeHeIeJeKeLeMeNeOeDePeQeReSeTeUeVeWeXeYeZe0",
"e1c8e2dDeze3e4e5e6e7e8e9f.f#fafbfcfdfefffgfhfifjfkfl.0fmfnfofpfq",
"frfsftfuezfvfwfxfyfzfAfBfCfDfEfFfGfHfIfJfKfLfMfNfO.YfPfQfRfRfSfT",
"d9d9d9ezdDc6fUcafVfWfXbhfYcefZf0f1f2f3f4f5f6fsf7cDbWf8aWf9g.g#ga",
"gbgbgcgbgdgegfggghgigjgkglgmgngogp.2gqgrgsgt.X.M#jgugvcaca#Kgwgx",
"gcgcdydygbgygzgAgBgC.HgDgEgFgGgHgIgJgKf6eAdD.XgLd5gM.tgNgOgPgQgR",
"gcdygSgIgSdyf6gTgUgV.qgWgXgYgZg0g1gKgbd9d9cTg2.XbWgM.taig3g4.Bg5",
"gbgcdydydygSg6g7g8g9h.h#hahb.yfMhcgIdyd9gdd9d9hdfufUd5eyhec7dAdD",
"cThfhggcgcgcgbgchhgKhihjhkhlhmhnhodygbd9ezgdgbhphqhrdAhsc7htc6ez",
"dEezgdd9d9hddEd9huhvhwhxhyhzhAhBhCcTgdgdezgdgbgbd9gdhDdAgLg5dDez",
"hEgQhF.Xf7gRd.hGc7dBfwd7dlhHhIhJd5hKc7cRezezezgdd9gdezdBc7dChDcU",
".YhLhMhMhNhOhPhPcu.YhQhRcPhShThUhVhWc6hdezdDdDdDgdgddDdD.X.XdBf7",
"hXhYhZh0h1h0h0h0h2h3h4h5h6h4h7h8h9i.i#iaiaiaiaibiaiaibibicidieif"};
